<svg width="200" height="42" viewBox="0 0 200 42" fill="none" xmlns="http://www.w3.org/2000/svg">
<path d="M30.461 34.4375C30.4465 34.3475 30.4838 34.2569 30.5575 34.2032C30.6312 34.1495 30.7288 34.1418 30.8101 34.1832C32.1951 34.8878 33.6499 35.4458 35.1509 35.8481C35.2332 35.8702 35.3211 35.8476 35.3826 35.7886C36.0349 35.1624 36.6461 34.4947 37.2124 33.7897C37.2666 33.7219 37.2808 33.6305 37.2497 33.5495C36.6874 32.0905 35.9732 30.6946 35.119 29.3848C35.0692 29.3085 35.0664 29.2106 35.1119 29.1316C35.1573 29.0526 35.2433 29.0058 35.3343 29.0105C35.7269 29.031 36.1183 29.0413 36.5084 29.0413C37.7052 29.0411 38.9 28.9442 40.0812 28.7514C40.1648 28.7377 40.2354 28.6816 40.2675 28.6032C40.5971 27.7963 40.8754 26.9695 41.1009 26.1276C41.1232 26.0438 41.0994 25.9546 41.0385 25.8929C39.9109 24.7566 38.6643 23.745 37.3202 22.8755C37.2436 22.826 37.2014 22.7377 37.2108 22.647C37.2203 22.5563 37.2798 22.4787 37.3649 22.446C38.8838 21.8627 40.3342 21.1151 41.6905 20.2164C41.7609 20.1695 41.802 20.0896 41.7995 20.0051C41.7716 19.1691 41.6939 18.3354 41.5667 17.5086C41.5535 17.4232 41.496 17.3511 41.4156 17.3193C39.8908 16.7181 38.3044 16.2868 36.6851 16.0332C36.5951 16.0191 36.5206 15.9556 36.4923 15.8689C36.4641 15.7822 36.4869 15.687 36.5513 15.6225C37.7306 14.4442 38.7741 13.1374 39.6623 11.7267C39.7073 11.6551 39.7119 11.5652 39.6746 11.4893C39.2965 10.7215 38.8715 9.97766 38.4021 9.26203L38.3916 9.28202C36.6787 9.33899 34.978 9.59325 33.3234 10.0398L33.2554 10.0582C33.1676 10.0824 33.0737 10.0551 33.0126 9.98753C32.9515 9.92 32.9336 9.8238 32.9665 9.73886C32.9748 9.71687 32.9832 9.69488 32.9915 9.67305C33.5929 8.09173 34.0126 6.44716 34.2424 4.77102C34.2864 4.75287 34.3308 4.73581 34.375 4.71797C33.6528 4.10856 32.8904 3.5486 32.0928 3.04193L32.0874 3.04516C32.0912 3.1389 32.0393 3.22605 31.9552 3.26751C30.4813 3.99975 29.0931 4.89281 27.8157 5.93041L27.7609 5.975C27.6905 6.03279 27.5936 6.04598 27.5103 6.00911C27.427 5.97223 27.3716 5.89159 27.3671 5.80063C27.3659 5.7771 27.3647 5.75373 27.3633 5.73021C27.2726 4.09227 27.0017 2.46932 26.5554 0.89076C26.5316 0.807085 26.5552 0.717107 26.6169 0.655808C26.6346 0.638125 26.6524 0.620442 26.6698 0.602451C25.7356 0.335327 24.7838 0.134017 23.8215 0L23.8122 0.0167604C23.8771 0.104493 23.8735 0.225228 23.8035 0.308914C22.7583 1.57433 21.8559 2.95116 21.1126 4.41444L21.0807 4.47717C21.0399 4.55853 20.9568 4.60997 20.8658 4.61016C20.7747 4.61036 20.6914 4.55928 20.6502 4.4781L20.6182 4.41536C19.8675 2.95133 18.9572 1.57482 17.9038 0.310913C17.8485 0.245062 17.8327 0.154647 17.8624 0.0739609C17.87 0.0538177 17.8778 0.0338283 17.8847 0.0136851C16.9328 0.151202 15.9916 0.354609 15.0678 0.622441L15.0664 0.635049C15.1538 0.691502 15.1941 0.798362 15.1657 0.898449C14.7231 2.48304 14.4572 4.11173 14.3728 5.75481L14.3691 5.82523C14.3649 5.91621 14.3097 5.99705 14.2266 6.03421C14.1435 6.07138 14.0465 6.05852 13.9759 6.00099L13.9211 5.9567C12.6437 4.92716 11.2565 4.04166 9.78487 3.31625C9.70759 3.2785 9.65652 3.20219 9.65109 3.11635C9.65017 3.1039 9.6494 3.09144 9.64863 3.07899C8.84941 3.59069 8.08586 4.15605 7.36322 4.77117C7.40551 4.78793 7.44795 4.80408 7.49008 4.8213C7.72617 6.49641 8.15202 8.13924 8.75941 9.7181L8.78478 9.78391C8.81805 9.86873 8.80063 9.96506 8.73976 10.0329C8.67889 10.1007 8.58499 10.1283 8.49708 10.1044L8.42897 10.0862C6.79857 9.65287 5.12429 9.40583 3.43822 9.34983C3.42361 9.32277 3.40977 9.2954 3.39516 9.26818C2.89166 10.0366 2.43938 10.8374 2.04126 11.6654C2.05802 11.6654 2.07478 11.6637 2.09154 11.6632C2.98841 13.0979 4.04546 14.4259 5.24234 15.6218L5.29232 15.6716C5.35711 15.7356 5.38029 15.8307 5.35223 15.9173C5.32416 16.004 5.24965 16.0675 5.15962 16.0814L5.08996 16.0924C3.47499 16.3516 1.89344 16.7876 0.373836 17.3927C0.293432 17.4247 0.236113 17.4971 0.2233 17.5827C0.098939 18.4133 0.0244346 19.2505 8.96629e-05 20.09C-0.00219582 20.1746 0.0393395 20.2543 0.109975 20.3008C1.46692 21.1917 2.91706 21.9317 4.43462 22.5078C4.51982 22.5402 4.57963 22.6177 4.58937 22.7083C4.5991 22.7989 4.55713 22.8874 4.48074 22.9371C3.14301 23.8098 1.90285 24.8236 0.781621 25.9611C0.720803 26.0228 0.697381 26.1122 0.720114 26.1959C0.948916 27.0399 1.23087 27.8687 1.56428 28.6772C1.59676 28.7556 1.66762 28.8115 1.75142 28.8248C2.90214 29.0076 4.06549 29.0996 5.23066 29.0997C5.6489 29.0997 6.06867 29.088 6.48999 29.0645C6.58103 29.0594 6.66723 29.1059 6.71301 29.1847C6.75878 29.2636 6.75639 29.3615 6.7068 29.438C5.85904 30.7484 5.15123 32.1442 4.59499 33.6024C4.56412 33.6835 4.57864 33.7748 4.63313 33.8423C5.20317 34.5476 5.81829 35.2154 6.47461 35.8412C6.53639 35.9 6.62435 35.9223 6.70665 35.9C8.20335 35.4918 9.65345 34.9288 11.0334 34.2201C11.1145 34.1784 11.2121 34.1858 11.286 34.2392C11.3599 34.2926 11.3975 34.383 11.3834 34.473C11.1453 35.9921 11.0648 37.5316 11.1432 39.0672C11.1476 39.1535 11.1974 39.231 11.2741 39.2708C12.0951 39.6975 12.9437 40.0689 13.8141 40.3825C13.8949 40.4114 13.9848 40.3959 14.0512 40.3416C15.2367 39.3694 16.3188 38.2775 17.2803 37.0833C17.3374 37.0123 17.4296 36.9794 17.5188 36.9982C17.608 37.0169 17.6791 37.0842 17.7028 37.1722C18.0998 38.6463 18.647 40.0757 19.3358 41.438C19.3746 41.5146 19.4509 41.5651 19.5366 41.5707C19.9877 41.5999 20.4424 41.6148 20.9007 41.6156C21.3825 41.6156 21.8601 41.5993 22.3335 41.5668C22.4194 41.5609 22.4957 41.51 22.5343 41.433C23.2182 40.0678 23.7602 38.6359 24.1516 37.1599C24.175 37.0718 24.2459 37.0042 24.335 36.9851C24.4242 36.966 24.5165 36.9985 24.574 37.0694C25.5408 38.2609 26.6281 39.3495 27.8184 40.3178C27.885 40.3718 27.9749 40.3869 28.0555 40.3578C28.9237 40.0416 29.7698 39.6679 30.5882 39.2391C30.6647 39.199 30.7143 39.1213 30.7184 39.0349C30.7914 37.4977 30.7052 35.957 30.461 34.4375ZM38.0083 26.25C38.1759 26.3895 38.0879 26.6635 37.8699 26.6785C37.4173 26.7093 36.9623 26.725 36.5049 26.7256C36.1559 26.7256 35.8047 26.7165 35.4536 26.6984C34.5792 26.6527 33.7087 26.55 32.8476 26.3908C32.7969 26.3815 32.7506 26.356 32.7155 26.3183C32.0471 25.6036 31.3315 24.9346 30.5736 24.3156C30.4965 24.2531 30.4659 24.1496 30.4966 24.0553C30.5272 23.9609 30.6129 23.8952 30.712 23.89C31.6886 23.8318 32.6603 23.7086 33.6206 23.521C33.6712 23.511 33.7236 23.5175 33.7702 23.5396C35.2908 24.2622 36.7147 25.1728 38.0086 26.2498L38.0083 26.25ZM36.3261 18.3197C37.1223 18.4444 37.9104 18.6169 38.6859 18.8362C38.8961 18.8957 38.9264 19.182 38.7334 19.2843C37.2461 20.0714 35.666 20.6691 34.0301 21.0635C33.9799 21.0754 33.9273 21.0709 33.8798 21.0507C32.978 20.6693 32.0516 20.3487 31.1068 20.0911C31.0111 20.0653 30.9411 19.9834 30.9307 19.8848C30.9203 19.7862 30.9716 19.6914 31.0598 19.6462C31.9289 19.1964 32.7669 18.689 33.5683 18.1274C33.6104 18.0978 33.6609 18.0824 33.7124 18.0835C34.5878 18.1053 35.4609 18.1842 36.3261 18.3197ZM36.4909 12.1916C35.4543 13.5111 34.2558 14.6949 32.9236 15.7151C32.8826 15.7462 32.8328 15.7635 32.7813 15.7644C31.7914 15.7836 30.804 15.8697 29.8257 16.0222C29.7278 16.0378 29.6304 15.9915 29.5806 15.9058C29.5308 15.8201 29.5389 15.7126 29.601 15.6353C30.2014 14.8819 30.7516 14.0898 31.248 13.2641C31.2743 13.2201 31.3139 13.1857 31.361 13.1657C32.9312 12.5038 34.5796 12.0454 36.2661 11.8016C36.4814 11.7704 36.6258 12.02 36.4909 12.1916ZM27.232 9.70318C27.238 9.65227 27.2602 9.60463 27.2953 9.56726C28.4452 8.34406 29.7436 7.2696 31.1603 6.36895C31.3449 6.25162 31.5792 6.42107 31.5257 6.63311C31.1144 8.26075 30.5009 9.83049 29.6996 11.3057C29.675 11.3507 29.6368 11.3867 29.5904 11.4084C28.7139 11.8218 27.8657 12.2927 27.0514 12.8182C26.9683 12.8721 26.8606 12.8694 26.7803 12.8113C26.7 12.7533 26.6637 12.6518 26.6889 12.556C26.9326 11.6181 27.114 10.665 27.232 9.70318ZM12.4691 7.75929C13.1713 8.32487 13.8347 8.93701 14.4549 9.59155C14.49 9.62885 14.5123 9.67634 14.5187 9.72717C14.6401 10.6886 14.825 11.641 15.0722 12.578C15.0978 12.6737 15.0619 12.7754 14.9818 12.8337C14.9017 12.8921 14.7939 12.8952 14.7106 12.8415C13.8993 12.3225 13.0548 11.8574 12.1825 11.4493C12.1362 11.4277 12.0979 11.3919 12.0732 11.3471C11.2643 9.87592 10.644 8.30871 10.2269 6.68247C10.1725 6.47043 10.4064 6.30006 10.5914 6.41692C11.2425 6.82804 11.8694 7.27623 12.4691 7.75929ZM5.34875 12.2512C5.21297 12.0796 5.35736 11.829 5.57386 11.8605C7.22985 12.1019 8.84929 12.5488 10.3947 13.1909C10.442 13.2106 10.4818 13.2449 10.5082 13.2888C11.0101 14.1178 11.5663 14.9127 12.1731 15.6682C12.2354 15.7453 12.2439 15.8527 12.1944 15.9386C12.145 16.0245 12.0478 16.0711 11.9499 16.056C10.9978 15.9116 10.0373 15.83 9.07447 15.8117C9.02334 15.8108 8.97381 15.7937 8.93301 15.7629C7.59553 14.7475 6.39129 13.5677 5.34875 12.2512ZM3.12946 18.9063C4.76768 18.4374 6.45912 18.1799 8.16265 18.14C8.21381 18.1388 8.26401 18.154 8.30595 18.1833C9.09687 18.7327 9.92303 19.2295 10.7791 19.6705C10.8675 19.7155 10.919 19.8103 10.9088 19.9089C10.8985 20.0075 10.8287 20.0896 10.733 20.1155C9.77822 20.3775 8.84227 20.7038 7.93154 21.0921C7.88423 21.1123 7.83173 21.1169 7.78162 21.1053C6.14819 20.7213 4.56962 20.133 3.08317 19.3545C2.89097 19.2534 2.91957 18.9666 3.12946 18.9063ZM6.36129 26.7534C5.56224 26.798 4.76124 26.7949 3.96256 26.7442C3.74467 26.7302 3.65503 26.4565 3.82186 26.3161C5.11159 25.2335 6.53292 24.3183 8.05209 23.592C8.09858 23.5698 8.15097 23.5631 8.20155 23.5729C9.15625 23.7549 10.122 23.8734 11.0923 23.9277C11.1913 23.9329 11.2768 23.9984 11.3077 24.0925C11.3385 24.1867 11.3083 24.2901 11.2316 24.3528C10.4763 24.9745 9.7634 25.6459 9.09769 26.3627C9.06274 26.4005 9.01661 26.4261 8.96607 26.4357C8.10565 26.5982 7.23554 26.7043 6.36129 26.7534ZM9.97615 32.1609C9.25935 32.529 8.52108 32.8538 7.76532 33.1334C7.5605 33.2091 7.36722 32.995 7.46302 32.7993C8.20123 31.2866 9.12672 29.8727 10.2177 28.5909C10.2511 28.5517 10.2963 28.5243 10.3464 28.5126C11.2993 28.2897 12.2361 28.0033 13.1508 27.6554C13.2433 27.6199 13.3481 27.645 13.4146 27.7185C13.481 27.7919 13.4955 27.8987 13.4509 27.9872C13.0135 28.8625 12.6351 29.7661 12.3183 30.6919C12.3017 30.7407 12.2699 30.7829 12.2276 30.8123C11.5073 31.3104 10.7552 31.7609 9.97615 32.1609ZM15.4771 35.632C14.9752 36.2555 14.4366 36.8484 13.8641 37.4078C13.708 37.5603 13.4443 37.4439 13.452 37.2257C13.5114 35.5435 13.7831 33.8755 14.2605 32.2613C14.2754 32.2122 14.3054 32.1692 14.3463 32.1383C15.1208 31.5502 15.8554 30.9114 16.5451 30.2259C16.6152 30.1559 16.7211 30.1361 16.8117 30.1762C16.9023 30.2163 16.959 30.3079 16.9543 30.4069C16.9104 31.3844 16.932 32.3639 17.0189 33.3386C17.0236 33.3899 17.0118 33.4413 16.9851 33.4854C16.5296 34.233 16.0259 34.95 15.4771 35.632ZM16.7852 8.71371C16.7515 8.67497 16.731 8.62649 16.7267 8.57532C16.588 6.90211 16.6592 5.21811 16.9386 3.56258C16.9751 3.34731 17.2578 3.2858 17.3795 3.46817C17.8107 4.11274 18.2043 4.78165 18.5584 5.47157C18.97 6.27377 19.3273 7.10274 19.6277 7.95288C19.6446 8.00124 19.6458 8.05375 19.6309 8.1028C19.3511 9.03045 19.1331 9.97561 18.9782 10.9321C18.9627 11.03 18.8885 11.1083 18.7916 11.1292C18.6946 11.15 18.5949 11.109 18.5406 11.026C18.0071 10.2173 17.4207 9.44487 16.7852 8.71371ZM21.914 36.5672C21.7075 37.3462 21.4543 38.1122 21.1559 38.8609C21.0751 39.0637 20.7869 39.0643 20.7054 38.8616C20.0762 37.3004 19.6455 35.6664 19.4235 33.9979C19.4168 33.9468 19.4266 33.8949 19.4516 33.8498C19.924 32.9929 20.3385 32.1052 20.6923 31.1929C20.7279 31.1004 20.8167 31.0393 20.9157 31.0391C21.0148 31.0389 21.1039 31.0996 21.1398 31.192C21.4971 32.103 21.915 32.9891 22.3907 33.8443C22.4157 33.8893 22.4258 33.9411 22.4193 33.9922C22.3071 34.8606 22.1383 35.7208 21.914 36.5672ZM22.7772 10.9261C22.6196 9.97592 22.3997 9.03715 22.1188 8.11587C22.1038 8.06698 22.1047 8.01459 22.1214 7.96626C22.6708 6.3853 23.4166 4.87959 24.3412 3.48447C24.462 3.3021 24.7453 3.36146 24.7823 3.57673C25.0664 5.2262 25.1421 6.90482 25.0078 8.57317C25.0037 8.62426 24.9834 8.67273 24.9499 8.71155C24.3216 9.44148 23.742 10.212 23.2149 11.018C23.1608 11.1009 23.0614 11.1421 22.9646 11.1218C22.8678 11.1014 22.7933 11.0237 22.7772 10.9261ZM24.8223 33.3055C24.9042 32.3363 24.9215 31.3628 24.8741 30.3913C24.8691 30.2924 24.9253 30.2005 25.0157 30.1601C25.1062 30.1196 25.2122 30.1389 25.2825 30.2087C25.9793 30.8957 26.7213 31.5354 27.5035 32.1233C27.5447 32.1541 27.5749 32.1972 27.5899 32.2464C28.0699 33.8539 28.3468 35.5151 28.4141 37.1914C28.4229 37.4096 28.1599 37.5276 28.0029 37.376C26.7932 36.2054 25.7362 34.8867 24.8571 33.4513C24.8304 33.4076 24.8183 33.3565 24.8226 33.3055H24.8223ZM28.6681 27.626C29.5841 27.9702 30.522 28.2528 31.4757 28.4717C31.5259 28.4832 31.5712 28.5105 31.6047 28.5495C32.7004 29.8272 33.6313 31.2375 34.3753 32.7473C34.4718 32.9432 34.2795 33.1574 34.0743 33.0825C32.4934 32.5047 30.9913 31.7306 29.6033 30.7784C29.5609 30.7491 29.5289 30.707 29.5121 30.6583C29.192 29.734 28.8104 28.8322 28.3698 27.9589C28.3251 27.8707 28.3391 27.764 28.4052 27.6903C28.4713 27.6166 28.5758 27.5911 28.6684 27.626H28.6681Z" fill="#182CD1"/>
<path d="M61.3845 35.73V17.6562C61.3845 16.5454 61.6002 15.575 62.0314 14.7452C62.4627 13.9153 63.0475 13.2684 63.7859 12.8045C64.5243 12.3406 65.3574 12.1086 66.2852 12.1086C67.6574 12.1086 68.765 12.5464 69.6079 13.422C70.4509 14.2976 70.8723 15.4738 70.8723 16.9505V35.73H78.9683V17.3426C78.9683 15.7743 79.393 14.51 80.2425 13.5494C81.0919 12.5889 82.2746 12.1086 83.7906 12.1086C85.1236 12.1086 86.2344 12.5268 87.1231 13.3632C88.0117 14.1996 88.4561 15.4542 88.4561 17.1269V35.73H96.7873V15.4803C96.7873 12.2132 95.9084 9.68766 94.1507 7.9038C92.393 6.11994 90.1092 5.22801 87.2995 5.22801C85.0909 5.22801 83.1796 5.74749 81.5657 6.78644C79.9517 7.82539 78.8376 9.20739 78.2234 10.9324H77.9097C77.4262 9.18125 76.4591 7.79272 75.0085 6.76684C73.5579 5.74095 71.8002 5.22801 69.7353 5.22801C67.6967 5.22801 65.9455 5.73769 64.4818 6.75703C63.0181 7.77638 61.9726 9.16818 61.3453 10.9324H60.9925V5.62007H53.0337V35.73H61.3845ZM116.978 36.3181C120.023 36.3181 122.653 35.668 124.868 34.3676C127.083 33.0673 128.792 31.2508 129.994 28.9181C131.197 26.5853 131.798 23.8769 131.798 20.7927C131.798 17.6824 131.197 14.9608 129.994 12.6281C128.792 10.2953 127.083 8.47882 124.868 7.1785C122.653 5.87817 120.023 5.22801 116.978 5.22801C113.933 5.22801 111.303 5.87817 109.088 7.1785C106.873 8.47882 105.164 10.2953 103.962 12.6281C102.76 14.9608 102.158 17.6824 102.158 20.7927C102.158 23.8769 102.76 26.5853 103.962 28.9181C105.164 31.2508 106.873 33.0673 109.088 34.3676C111.303 35.668 113.933 36.3181 116.978 36.3181ZM117.017 29.8492C115.619 29.8492 114.446 29.4539 113.499 28.6632C112.551 27.8726 111.839 26.7911 111.362 25.4189C110.885 24.0467 110.646 22.4851 110.646 20.7339C110.646 18.9827 110.885 17.421 111.362 16.0488C111.839 14.6766 112.551 13.5919 113.499 12.7947C114.446 11.9975 115.619 11.5989 117.017 11.5989C118.403 11.5989 119.559 11.9975 120.487 12.7947C121.415 13.5919 122.117 14.6766 122.594 16.0488C123.071 17.421 123.31 18.9827 123.31 20.7339C123.31 22.4851 123.071 24.0467 122.594 25.4189C122.117 26.7911 121.415 27.8726 120.487 28.6632C119.559 29.4539 118.403 29.8492 117.017 29.8492ZM145.598 35.73V18.3227C145.611 17.0289 145.856 15.9214 146.333 15C146.81 14.0787 147.477 13.3763 148.333 12.8927C149.189 12.4092 150.179 12.1674 151.303 12.1674C152.975 12.1674 154.289 12.6869 155.243 13.7258C156.197 14.7648 156.667 16.2056 156.654 18.0483V35.73H165.005V16.5585C165.005 14.2192 164.574 12.2034 163.711 10.511C162.849 8.8186 161.64 7.51501 160.085 6.60021C158.53 5.68541 156.707 5.22801 154.616 5.22801C152.381 5.22801 150.479 5.74095 148.911 6.76684C147.343 7.79272 146.226 9.18125 145.559 10.9324H145.206V5.62007H137.247V35.73H145.598ZM185.18 36.3181C188.225 36.3181 190.855 35.668 193.07 34.3676C195.286 33.0673 196.994 31.2508 198.197 28.9181C199.399 26.5853 200 23.8769 200 20.7927C200 17.6824 199.399 14.9608 198.197 12.6281C196.994 10.2953 195.286 8.47882 193.07 7.1785C190.855 5.87817 188.225 5.22801 185.18 5.22801C182.135 5.22801 179.505 5.87817 177.29 7.1785C175.075 8.47882 173.366 10.2953 172.164 12.6281C170.962 14.9608 170.36 17.6824 170.36 20.7927C170.36 23.8769 170.962 26.5853 172.164 28.9181C173.366 31.2508 175.075 33.0673 177.29 34.3676C179.505 35.668 182.135 36.3181 185.18 36.3181ZM185.219 29.8492C183.821 29.8492 182.648 29.4539 181.701 28.6632C180.753 27.8726 180.041 26.7911 179.564 25.4189C179.087 24.0467 178.849 22.4851 178.849 20.7339C178.849 18.9827 179.087 17.421 179.564 16.0488C180.041 14.6766 180.753 13.5919 181.701 12.7947C182.648 11.9975 183.821 11.5989 185.219 11.5989C186.605 11.5989 187.761 11.9975 188.689 12.7947C189.617 13.5919 190.319 14.6766 190.796 16.0488C191.273 17.421 191.512 18.9827 191.512 20.7339C191.512 22.4851 191.273 24.0467 190.796 25.4189C190.319 26.7911 189.617 27.8726 188.689 28.6632C187.761 29.4539 186.605 29.8492 185.219 29.8492Z" fill="#182CD1"/>
</svg>
